<svg width="22" height="22" viewBox="0 0 22 22" fill="none" xmlns="http://www.w3.org/2000/svg">
<path d="M20.7799 3.68272L17.9272 0.832721C17.579 0.484507 17.1129 0.288971 16.6201 0.288971C16.1272 0.288971 15.6611 0.481828 15.3129 0.832721L12.2406 3.89969C11.8924 4.2479 11.6968 4.71665 11.6968 5.20951C11.6968 5.70504 11.8897 6.16844 12.2406 6.51933L14.6406 8.92201C14.0938 10.1959 13.3083 11.3533 12.3263 12.3318C11.3433 13.3202 10.1942 14.0997 8.91916 14.6515L6.51916 12.2488C6.17094 11.9006 5.70487 11.705 5.21201 11.705C4.96891 11.7041 4.72808 11.7518 4.50363 11.8451C4.27917 11.9385 4.07561 12.0757 3.90487 12.2488L0.829871 15.3158C0.481657 15.664 0.286121 16.1327 0.286121 16.6256C0.286121 17.1211 0.478979 17.5845 0.829871 17.9354L3.67987 20.7854C4.27451 21.38 5.09416 21.7202 5.93523 21.7202C6.10934 21.7202 6.27809 21.7068 6.44951 21.6774C9.99594 21.0934 13.5156 19.205 16.3575 16.3658C19.1968 13.5211 21.0826 10.0015 21.6718 6.45236C21.8406 5.44522 21.5031 4.40861 20.7799 3.68272ZM19.7727 6.13361C19.2504 9.29165 17.5522 12.4417 14.9942 14.9997C12.4361 17.5577 9.2888 19.2559 6.13076 19.7783C5.73434 19.8452 5.32719 19.7113 5.03791 19.4247L2.2388 16.6256L5.20666 13.655L8.41559 16.8693L8.43969 16.8934L9.01826 16.6792C10.7725 16.0342 12.3656 15.0154 13.687 13.6936C15.0084 12.3717 16.0266 10.7783 16.6709 9.02379L16.8852 8.44522L13.6495 5.21219L16.6174 2.24165L19.4165 5.04076C19.7058 5.33004 19.8397 5.73719 19.7727 6.13361Z" fill="black" fill-opacity="0.85"/>
</svg>
